<svg id="Calque_1" data-name="Calque 1" xmlns="http://www.w3.org/2000/svg" viewBox="0 0 1809.32 1096.7"><defs><style>.cls-1{fill:#0081ff;}.cls-2{fill:#fab819;}.cls-3{fill:#223228;}.cls-4{fill:#e3cfaa;}.cls-5{fill:#ededed;}.cls-6{fill:#e0a718;}.cls-7{fill:#02b4a0;}.cls-8{fill:#27bfae;}</style></defs><ellipse class="cls-1" cx="471.51" cy="548.35" rx="471.51" ry="548.35"/><path class="cls-2" d="M507.43,370.23a171.56,171.56,0,0,1,19.94,4.14c4.77,1.22,8.86,2.42,12.29,6a17.47,17.47,0,0,1,4.3,7.26c2.25,6.94,5,13.72,7.49,20.57a156.32,156.32,0,0,0,7,19.95c.32,1.34.65,2.69,1,4l-14.86,0c-5.05-13.86-10.07-27.74-15.19-41.57a9.54,9.54,0,0,0-6.11-5.52,69.32,69.32,0,0,0-9.5-2.9c-24.17-4.88-48.56-4.15-73-2.47A59.58,59.58,0,0,0,420.19,385c-2.93,1.34-5.81,2.83-7,6-5,13.7-9.83,27.46-14.74,41.2l-14.91-.06c.31-1.33.63-2.67.95-4,5.32-13.08,9.43-26.59,13.91-40a18.12,18.12,0,0,1,9.16-11c14.4-6.47,29.86-7.52,45.28-8.77,4.85-.4,9-.29,14.62-.23C481.19,368.36,492.63,368.51,507.43,370.23Z" transform="translate(0 0.86)"/><path class="cls-3" d="M304,951.23c.47,12.62-.06,16.1-.12,22.94a28.85,28.85,0,0,1-29.18,29.07q-22.45.13-44.92,0c-17.45-.13-29.68-12.56-29.79-30,0-4.65-.13-9.31-.19-14s0-8.17,0-12c0-4.91,0-12,0-20.87l103.79,0C303.55,936.88,303.78,945.41,304,951.23Z" transform="translate(0 0.86)"/><path class="cls-3" d="M734.79,959.14q-.13,7.46-.26,14.9c-.27,16.83-12.63,29.12-29.41,29.16q-22.15.06-44.31,0c-17.63-.05-29.64-11.84-30.09-29.53-.2-7.79-.26-15.58-.38-23.37q.17-11.94.32-23.88l103.56-.11q.3,10.52.62,21A45.26,45.26,0,0,0,734.79,959.14Z" transform="translate(0 0.86)"/><path class="cls-3" d="M398.48,432.2c4.91-13.74,9.76-27.5,14.74-41.2,1.16-3.2,4-4.69,7-6a59.58,59.58,0,0,1,20.65-5.22c24.4-1.68,48.79-2.41,73,2.47a69.32,69.32,0,0,1,9.5,2.9,9.54,9.54,0,0,1,6.11,5.52c5.12,13.83,10.14,27.71,15.19,41.57-16,.05-31.91.15-47.87.14Q447.61,432.32,398.48,432.2Z" transform="translate(0 0.86)"/><path class="cls-4" d="M398.48,432.2q49.13.07,98.25.15c16,0,31.91-.09,47.87-.14l14.86,0c3.84,1.3,5.32,3.95,4.94,8-.25,2.6,0,5.25,0,7.88l-22.65-3.18c-34-4.75-68-7.19-102.33-4.6-8.93.67-17.85,1.59-26.75,2.58-11.37,1.28-22.71,2.75-34.06,4.14,0-2.64.09-5.28,0-7.92-.11-3.61,1.34-6,5-6.9Z" transform="translate(0 0.86)"/><path class="cls-4" d="M148,926.42a80.89,80.89,0,0,0-8.94-.1c-12.13,1.17-20.85-5.89-20.24-19V887.42a94.79,94.79,0,0,0,.09-10.12c0-4.81.63-7.25,2.06-9.91a16.65,16.65,0,0,1,7.14-6.81c10.16-.71,18.07-1,22-1.17,55.39-2,198.38.1,205.16.11,2.55,0,4.23-.59,5.74-2.86a15.71,15.71,0,0,1,13.89-7.35q92.85.08,185.69,0c6,0,10.73,2.32,13.85,7.36a5.3,5.3,0,0,0,5.2,2.83q102.82-.13,205.65-.14c7.23.26,14.51-.51,21.67,1.15l7.83,6.91c2.84,6.41,1.91,13.24,2.17,19.93v20c0,5.31-1,7.81-2.34,10.41a21.8,21.8,0,0,1-8.57,8.69H767c-10.79,0-13.53.06-19.88,0l-12.88-.11-103.56.11H587.34c-8.47-2.15-14.59,1.82-20,7.65-6.59,1.65-13.32.92-20,1.18H387.58c-6.61-.17-13.27.49-19.79-1.16q-4-3.47-8-6.91l-1.18-.72-10.92,0H307.78l-3.07-.1-1.09,0H200.07l-1.19.11L188,926.42H148Z" transform="translate(0 0.86)"/><path class="cls-5" d="M358.64,926.46l1.18.72Z" transform="translate(0 0.86)"/><path class="cls-6" d="M564.37,448l2.93.28.26.13.25-.14a118.92,118.92,0,0,0,19.4,4l20,5L627,463.7c14.32,5.43,28.09,11.88,40.19,21.46a7.28,7.28,0,0,0,3,2.88c10.39,12,18,25.75,24.62,40.09q3.81,9.92,7.63,19.83,2.33,7.08,4.67,14.17c-.13,2.11.88,3.94,1.46,5.88q2.46,9.9,4.9,19.82,2.05,10,4.1,20.11L721,627.85a36.05,36.05,0,0,0,1.6,11.13l9.51-7.17c3.68,6.36,7.67,12.47,14,16.63-6.11,4.83-12.19,9.72-18.36,14.47-1.87,1.44-3,2.86-2.57,5.39.62,4.09.93,8.22,1.36,12.33.07,2.38.13,4.76.2,7.13-3.91-.64-7.77-1.58-11.65-2.35-24.13-4.77-48.25-9.6-72.47-13.93-29.45-5.26-59.07-8.9-88.81-11.7-16.68-1.57-33.45-1.19-50.16-1.77-17.72-.61-35.5-.55-53.28.48-16.69,1-33.44.93-50.15,2.13-13.19,1-26.38,1.76-39.55,3-18.58,1.75-37,4.33-55.51,6.92-27.53,3.86-54.6,9.78-81.65,16-7.37,1.69-14.44,4.85-22.18,4.89l6.89-3.44c1.35-6.81,1.29-13.75,1.91-20.62.18-2-1.37-2.86-2.63-3.88l-18.52-15a56.51,56.51,0,0,0,13.74-16.74l5.29,3.82c1.38,1.39,2.67,2.9,5,3.39,1.27-3.66,1.19-7.47,1.73-11.18q1.59-10,3.17-20l4-20,5-20a8.39,8.39,0,0,0,1.21-4.61,88.51,88.51,0,0,0,4.86-15.34q3.9-10,7.79-20c6.74-14.13,14.14-27.86,24.46-39.81l2.86-2.71c4.19-2.88,8.28-5.93,12.6-8.63,8.53-5.32,18-8.69,27.14-12.78l20-6.17,20-5L378.58,447c11.35-1.39,22.69-2.86,34.06-4.14,8.9-1,17.82-1.91,26.75-2.58,34.29-2.59,68.36-.15,102.33,4.6ZM438.54,632.57l52-.23c8.91.33,17.83.58,26.74,1,15.35.74,30.7,1.59,46.05,2.39,1.81.28,3.61.67,5.42.82,21.54,1.72,42.94,4.48,64.25,8.06,17.35,2.91,34.5,6.72,51.46,11.13,1-1.64.51-3.15.36-4.59-1.88-17.34-4.23-34.62-7.74-51.71-5-24.45-11.57-48.38-22.61-71-8.69-17.78-21.87-30-40.5-36.86-36-13.3-73.47-19.05-111.54-21.71a12,12,0,0,0-2.37-.62c-15.43-.92-30.87-1.85-46.31-.93-7.1.42-14.29-.06-21.29,1.64a348.17,348.17,0,0,0-50.88,6.14c-7.29.62-14.39,2.33-21.48,4-14.83,3.46-29.69,6.93-43.42,13.87-10.77,4.14-20,10.31-26.77,19.88a126.22,126.22,0,0,0-13.26,23.93c-15.27,36.2-21.73,74.43-26,113.17-.48,4.39.64,4.88,4.67,3.8a536,536,0,0,1,74.31-14.17c13-1.6,26-3.06,39.06-4.59C392,634.74,415.24,633.11,438.54,632.57Z" transform="translate(0 0.86)"/><path class="cls-2" d="M150.09,859.41q0-45.82,0-91.65c0-6.83,1.3-13.51,2.65-20.18a126.34,126.34,0,0,1,8-19.92q3.62-5.55,7.25-11.09l8-8.89,12-9.63c4.53-2,8.36-5.38,13.26-6.63,7.74,0,14.81-3.2,22.18-4.89,27.05-6.22,54.12-12.14,81.65-16,18.48-2.59,36.93-5.17,55.51-6.92,13.17-1.23,26.36-2,39.55-3,16.71-1.2,33.46-1.17,50.15-2.13,17.78-1,35.56-1.09,53.28-.48,16.71.58,33.48.2,50.16,1.77,29.74,2.8,59.36,6.44,88.81,11.7,24.22,4.33,48.34,9.16,72.47,13.93,3.88.77,7.74,1.71,11.65,2.35l.48-.11L747,697.77l12.6,10.08,7.31,8,8,11.82q4,10,8,19.92c.69,6.08,2.27,12,2.26,18.21,0,31.19.07,62.37.11,93.55q-102.82,0-205.65.14a5.3,5.3,0,0,1-5.2-2.83c-3.12-5-7.89-7.36-13.85-7.36q-92.85,0-185.69,0A15.71,15.71,0,0,0,361,856.66c-1.51,2.27-3.19,2.86-5.74,2.86Q252.68,859.4,150.09,859.41ZM468,773.11q46.9,0,93.82,0a34.76,34.76,0,0,0,6-.31,9,9,0,0,0,7.75-9.49c-.1-6.18-4.25-9.47-12.07-9.47H371.82a22,22,0,0,0-4,.21,9.53,9.53,0,0,0,.36,18.9,35.89,35.89,0,0,0,5,.16Zm0,13.09H373.69a50.08,50.08,0,0,0-5.48.15,9.44,9.44,0,0,0-8.46,8.42,9.72,9.72,0,0,0,6.65,10c2.11.75,4.26.59,6.41.59H562.44a30.56,30.56,0,0,0,5-.19,9.31,9.31,0,0,0,8.11-9.77c-.14-5.9-4-9.18-11.21-9.19Q516.17,786.15,468,786.2Zm-.35-45.43H557c3.32,0,6.66.14,10-.09a9,9,0,0,0,8.53-8.26c.47-4.93-2.11-9-6.79-10.25a21.38,21.38,0,0,0-5.43-.48q-95.55,0-191.1,0a27.91,27.91,0,0,0-4,.13,9.69,9.69,0,0,0-8.45,9.59,9.42,9.42,0,0,0,9.15,9.34c1.49.1,3,0,4.49,0Zm-224.12,78A53.38,53.38,0,0,0,244,712c-29.37-.29-53.87,24-53.85,53.48A53.34,53.34,0,0,0,243.54,818.72Zm458.73,0a53.26,53.26,0,0,0,53.42-53.17c0-29.53-24.3-53.8-53.71-53.59a53.38,53.38,0,0,0,.29,106.76Z" transform="translate(0 0.86)"/><path class="cls-3" d="M461.62,401.43c1.59,4.2,2.68,7.1,3.83,10.15-2.57.72-6.38,1.16-6.75.08C457.65,408.55,460.18,405.72,461.62,401.43Z" transform="translate(0 0.86)"/><path class="cls-7" d="M502.45,469.92c38.07,2.66,75.5,8.41,111.54,21.71,18.63,6.87,31.81,19.08,40.5,36.86,11,22.58,17.59,46.51,22.61,71,3.51,17.09,5.86,34.37,7.74,51.71.15,1.44.63,3-.36,4.59-17-4.41-34.11-8.22-51.46-11.13-21.31-3.58-42.71-6.34-64.25-8.06-1.81-.15-3.61-.54-5.42-.82q-6-16.29-12-32.58c-7.73-20.95-15.51-41.89-23.19-62.86Q515.22,505.13,502.45,469.92Z" transform="translate(0 0.86)"/><path class="cls-8" d="M502.45,469.92q12.82,35.19,25.67,70.38c7.68,21,15.46,41.91,23.19,62.86q6,16.29,12,32.58c-15.35-.8-30.7-1.65-46.05-2.39-8.91-.43-17.83-.68-26.74-1a57.11,57.11,0,0,0-1.52-6.26q-10.79-29.67-21.72-59.31c-8.67-23.49-17.58-46.88-26-70.46-3.11-8.7-7.48-17-8.85-26.3,7-1.7,14.19-1.22,21.29-1.64,15.44-.92,30.88,0,46.31.93A12,12,0,0,1,502.45,469.92Z" transform="translate(0 0.86)"/><path class="cls-7" d="M368.72,636c-13,1.53-26,3-39.06,4.59a536,536,0,0,0-74.31,14.17c-4,1.08-5.15.59-4.67-3.8,4.26-38.74,10.72-77,26-113.17a126.22,126.22,0,0,1,13.26-23.93c6.75-9.57,16-15.74,26.77-19.88l18.1,48.84c7.75,20.94,15.6,41.84,23.2,62.84C361.64,615.76,365.93,625.63,368.72,636Z" transform="translate(0 0.86)"/><path class="cls-8" d="M368.72,636c-2.79-10.39-7.08-20.26-10.72-30.34-7.6-21-15.45-41.9-23.2-62.84L316.7,494c13.73-6.94,28.59-10.41,43.42-13.87,7.09-1.65,14.19-3.36,21.48-4,.48,4.18,2.4,7.89,3.83,11.77q26.6,72.3,53.11,144.65C415.24,633.11,392,634.74,368.72,636Z" transform="translate(0 0.86)"/><path class="cls-7" d="M438.54,632.57Q412,560.24,385.43,487.92c-1.43-3.88-3.35-7.59-3.83-11.77A348.17,348.17,0,0,1,432.48,470c1.37,9.29,5.74,17.6,8.85,26.3,8.41,23.58,17.32,47,26,70.46q10.94,29.64,21.72,59.31a57.11,57.11,0,0,1,1.52,6.26Z" transform="translate(0 0.86)"/><path class="cls-2" d="M137.65,608.12c5.44-13.83,15.48-21.74,30.28-23.53,16.94-.15,28.54,7.78,35.13,23.26a45.32,45.32,0,0,1,.79,19.93c-1.09,1.13-1,2.61-1.19,4a56.51,56.51,0,0,1-13.74,16.74l-1,.31a47.45,47.45,0,0,1-20.05,4.52c-15.65-2.06-25.84-10.73-30.95-25.56A41.6,41.6,0,0,1,137.65,608.12Z" transform="translate(0 0.86)"/><path class="cls-2" d="M797.68,627.74c-5.09,14.69-15.16,23.4-30.68,25.56-6.48-.06-12.79-1-18.73-3.72l-2.22-1.14c-6.3-4.16-10.29-10.27-14-16.63a41.85,41.85,0,0,1-.6-23.83c6.63-15.71,18.37-23.66,35.52-23.37,14.56,1.86,24.32,9.91,30,23.22A50.39,50.39,0,0,1,797.68,627.74Z" transform="translate(0 0.86)"/><path class="cls-3" d="M468,773.11H373.18a35.89,35.89,0,0,1-5-.16,9.53,9.53,0,0,1-.36-18.9,22,22,0,0,1,4-.21H563.46c7.82,0,12,3.29,12.07,9.47a9,9,0,0,1-7.75,9.49,34.76,34.76,0,0,1-6,.31Q514.92,773.13,468,773.11Z" transform="translate(0 0.86)"/><path class="cls-3" d="M468,786.2q48.15,0,96.31,0c7.2,0,11.07,3.29,11.21,9.19a9.31,9.31,0,0,1-8.11,9.77,30.56,30.56,0,0,1-5,.19H372.81c-2.15,0-4.3.16-6.41-.59a9.72,9.72,0,0,1-6.65-10,9.44,9.44,0,0,1,8.46-8.42,50.08,50.08,0,0,1,5.48-.15Z" transform="translate(0 0.86)"/><path class="cls-3" d="M467.66,740.77h-94.3c-1.5,0-3,.06-4.49,0a9.42,9.42,0,0,1-9.15-9.34,9.69,9.69,0,0,1,8.45-9.59,27.91,27.91,0,0,1,4-.13q95.55,0,191.1,0a21.38,21.38,0,0,1,5.43.48c4.68,1.25,7.26,5.32,6.79,10.25a9,9,0,0,1-8.53,8.26c-3.31.23-6.65.09-10,.09Z" transform="translate(0 0.86)"/><path class="cls-3" d="M243.54,818.72a53.34,53.34,0,0,1-53.35-53.28c0-29.44,24.48-53.77,53.85-53.48a53.38,53.38,0,0,1-.5,106.76ZM203.92,765.1a40.06,40.06,0,0,0,39.77,40.24c21.42.07,39.86-18.33,39.88-39.79a40.15,40.15,0,0,0-39.66-39.87C222,725.62,204,743.38,203.92,765.1Z" transform="translate(0 0.86)"/><path class="cls-3" d="M702.27,818.72A53.38,53.38,0,0,1,702,712c29.41-.21,53.74,24.06,53.71,53.59A53.26,53.26,0,0,1,702.27,818.72Zm.2-93a40,40,0,0,0-40.1,39.79c0,21.54,18,39.72,39.62,39.87s39.9-17.87,40-39.39A39.86,39.86,0,0,0,702.47,725.68Z" transform="translate(0 0.86)"/><path class="cls-7" d="M203.92,765.1c.09-21.72,18.11-39.48,40-39.42a40.15,40.15,0,0,1,39.66,39.87c0,21.46-18.46,39.86-39.88,39.79A40.06,40.06,0,0,1,203.92,765.1Z" transform="translate(0 0.86)"/><path class="cls-7" d="M702.47,725.68A39.86,39.86,0,0,1,742,766c-.11,21.52-18.42,39.54-40,39.39S662.34,787,662.37,765.47A40,40,0,0,1,702.47,725.68Z" transform="translate(0 0.86)"/><path class="cls-6" d="M448.69,397.49h-6v19.85a3.64,3.64,0,0,1-.76,2.54,2.79,2.79,0,0,1-4,0,3.65,3.65,0,0,1-.77-2.53V397.49h-6a3.11,3.11,0,0,1-2.11-.62,2.13,2.13,0,0,1-.69-1.65,2.09,2.09,0,0,1,.72-1.68,3.11,3.11,0,0,1,2.08-.61h17.59a3.13,3.13,0,0,1,2.14.63,2.15,2.15,0,0,1,.69,1.66,2.1,2.1,0,0,1-.7,1.65A3.18,3.18,0,0,1,448.69,397.49Z" transform="translate(0 0.86)"/><path class="cls-6" d="M469.88,417.15l-1.3-3.43H457.47l-1.31,3.51a12.21,12.21,0,0,1-1.3,2.76,2.07,2.07,0,0,1-1.77.72,2.6,2.6,0,0,1-1.85-.76,2.36,2.36,0,0,1-.8-1.74,4,4,0,0,1,.19-1.15c.12-.4.33-.95.61-1.66l7-17.74.72-1.84a9.49,9.49,0,0,1,.9-1.78,3.58,3.58,0,0,1,1.24-1.14,4.41,4.41,0,0,1,3.84,0,3.69,3.69,0,0,1,1.25,1.13,7.8,7.8,0,0,1,.8,1.48c.22.53.5,1.23.83,2.11L475,415.25a8.85,8.85,0,0,1,.84,2.93,2.46,2.46,0,0,1-.79,1.74,2.61,2.61,0,0,1-1.91.79,2.54,2.54,0,0,1-1.12-.23,2.45,2.45,0,0,1-.79-.64,5.86,5.86,0,0,1-.68-1.23C470.26,418.06,470.05,417.57,469.88,417.15Zm-11-7.58h8.16L463,398.29Z" transform="translate(0 0.86)"/><path class="cls-6" d="M478.84,414.93,485,406l-5.15-7.94a15.52,15.52,0,0,1-1.09-2,4,4,0,0,1-.36-1.59,1.86,1.86,0,0,1,.7-1.41,2.47,2.47,0,0,1,1.7-.62,2.37,2.37,0,0,1,1.8.68,17.15,17.15,0,0,1,1.78,2.53l4.1,6.63,4.38-6.63.92-1.44a7.48,7.48,0,0,1,.74-1,2.31,2.31,0,0,1,.79-.58,2.47,2.47,0,0,1,1-.2,2.4,2.4,0,0,1,1.7.62,2,2,0,0,1,.66,1.49,6.91,6.91,0,0,1-1.43,3.39L491.83,406l5.8,8.92a15.09,15.09,0,0,1,1.13,1.95,3.48,3.48,0,0,1,.36,1.46,2.34,2.34,0,0,1-.32,1.2,2.28,2.28,0,0,1-.89.85,2.6,2.6,0,0,1-1.31.32,2.49,2.49,0,0,1-1.32-.33,2.74,2.74,0,0,1-.88-.81c-.22-.32-.64-.95-1.25-1.88l-4.8-7.56-5.11,7.79c-.4.62-.68,1.05-.85,1.3a4.93,4.93,0,0,1-.6.73,2.87,2.87,0,0,1-.84.56,3,3,0,0,1-1.14.2,2.37,2.37,0,0,1-1.67-.61,2.33,2.33,0,0,1-.66-1.79A6.48,6.48,0,0,1,478.84,414.93Z" transform="translate(0 0.86)"/><path class="cls-6" d="M503.12,417.34V395.81a3.62,3.62,0,0,1,.77-2.51,2.55,2.55,0,0,1,2-.84,2.66,2.66,0,0,1,2,.83,3.6,3.6,0,0,1,.77,2.52v21.53a3.65,3.65,0,0,1-.77,2.53,2.63,2.63,0,0,1-2,.84,2.52,2.52,0,0,1-2-.85A3.59,3.59,0,0,1,503.12,417.34Z" transform="translate(0 0.86)"/><text y="0.86"/><path class="cls-2" d="M1139,540.52l-4.28,20.37h-17.47l-23.6,110.94H1073l23.59-110.94h-17.46l4.28-20.37Zm-54,2-3.49,16.41H1099l-23.6,110.94H1092l23.59-110.94h17.47l3.5-16.41Z" transform="translate(0 0.86)"/><path class="cls-2" d="M1150.82,540.52l28.15.07q21,0,21,18.52a46.52,46.52,0,0,1-1.12,9.63l-4.08,19.44q-3.82,17.73-19.38,23.07l8.24,60.58H1161l-4.74-56.75-.66.06-12.07,56.69h-20.63Zm-25.51,129.33H1142l12-56.42,4.22-.6,4.68,57h18.32l-8.1-59.78q16.14-5.48,19.64-21.89l4.09-19.44a43.85,43.85,0,0,0,1.05-9q0-17.13-19.31-17.13l-26.17-.07Zm47.86-110.94q7.38,0,7.38,6.46a16.38,16.38,0,0,1-.39,3.37l-4.09,19.44a11.81,11.81,0,0,1-7.71,9.16,19.55,19.55,0,0,1-5.8.6h-5.28l8.31-39Zm-6,2L1159.66,596H1163a19.38,19.38,0,0,0,5.15-.46q4.8-1.79,6-7.32l4.09-19.44a13.15,13.15,0,0,0,.33-2.77q0-5.09-5.73-5.08Z" transform="translate(0 0.86)"/><path class="cls-2" d="M1258.2,624.83l-3.75,47h-20.83l2.17-27.42h-17.33l-9.5,27.42H1188.2l16.15-46.8,31.25-84.51h27.29Zm2.58-82.33h-23.87l-30.65,82.79-15.42,44.56h16.81l9.55-27.42H1238l-2.24,27.42h16.87l3.63-44.75Zm-38,83.45,21.49-62.29-5,62.29Zm14.63-2,3.63-45.29L1225.44,624Z" transform="translate(0 0.86)"/><path class="cls-2" d="M1303.43,671.83h-27.29l4.61-84.44,3.76-46.87h20.83l-7.52,93.08,32.11-93.08h20.83l-16.15,47Zm29.26-84.57,15.43-44.76h-16.88l-36.65,106.26,8.64-106.26h-16.88l-3.56,44.63-4.54,82.72h23.86Z" transform="translate(0 0.86)"/><path class="cls-2" d="M1362,540.52h50.36L1408,560.89h-29.73L1370.79,596h25.58l-4.29,20.43h-25.57L1359,651.46h29.73l-4.28,20.37h-50.36Zm-25.51,129.33h46.41l3.49-16.41h-29.73l8.31-39h25.57l3.5-16.48h-25.58l8.31-39h29.73L1410,542.5h-46.41Z" transform="translate(0 0.86)"/><path class="cls-2" d="M1398.28,671.83l27.88-131.31h20.64l-23.6,110.94h29.73l-4.29,20.37Zm48.78-2,3.49-16.41h-29.72l23.59-110.94h-16.67l-27.1,127.35Z" transform="translate(0 0.86)"/><path class="cls-1" d="M1219.17,807.44h-21.53l-28.77-96.05h-.41v96.05h-20.7V662.54h24.42l25.88,86.32h.41V662.54h20.7Z" transform="translate(0 0.86)"/><path class="cls-1" d="M1304.45,682.83h-39.74v41h32.09V744.1h-32.09v43h39.74v20.29h-61.68V662.54h61.68Z" transform="translate(0 0.86)"/><path class="cls-1" d="M1407.75,807.44h-22.36L1373,721.12h-.41l-12.63,86.32h-22.36l-22.35-144.9h22.56l12.63,96.05h.41l12.42-96.05h19.46l12.42,96.05h.41l12.63-96.05h21.94Z" transform="translate(0 0.86)"/><path class="cls-1" d="M1517.25,742v65.41h-22V741.82l-30.43-79.28h23.19l18.42,51.34h.42l17.59-51.34h22.77Z" transform="translate(0 0.86)"/><path class="cls-1" d="M1613.61,670.3q9.41,9.84,9.42,26.81v75.76q0,17-9.42,26.81t-26,9.83q-16.56,0-26-9.83t-9.42-26.81V697.11q0-17,9.42-26.81t26-9.83Q1604.19,660.47,1613.61,670.3Zm-36,14.7q-3.42,4.25-3.42,12.32v75.34q0,8.08,3.42,12.32t10,4.24q6.61,0,10-4.24t3.41-12.32V697.32q0-8.09-3.41-12.32t-10-4.24Q1581,680.76,1577.59,685Z" transform="translate(0 0.86)"/><path class="cls-1" d="M1693.82,807.44l-17.39-61.27h-10.15v61.27h-21.94V662.54H1676q17.81,0,27.12,9.42t9.32,27.22v10.35q0,23-15.53,31.88l20.08,66Zm-27.54-124.61v43h8.91q7.86,0,11.59-4.34t3.72-13.46v-7.45q0-9.11-3.72-13.46t-11.59-4.34Z" transform="translate(0 0.86)"/><path class="cls-1" d="M1778.89,720.09l30.43,87.35h-23.39L1764.4,744.1l-9.52,18.63v44.71h-21.94V662.54h21.94V723h.41l30.43-60.44h23Z" transform="translate(0 0.86)"/></svg>